<svg width="14" height="14" viewBox="0 0 14 14" fill="none" xmlns="http://www.w3.org/2000/svg">
<path d="M5 12.3333H7M7 12.3333H9M7 12.3333V10.3333M7 10.3333H11.6667C12.0203 10.3333 12.3594 10.1928 12.6095 9.94277C12.8595 9.69272 13 9.35358 13 8.99996V2.99996C13 2.64634 12.8595 2.3072 12.6095 2.05715C12.3594 1.8071 12.0203 1.66663 11.6667 1.66663H2.33333C1.97971 1.66663 1.64057 1.8071 1.39052 2.05715C1.14048 2.3072 1 2.64634 1 2.99996V8.99996C1 9.35358 1.14048 9.69272 1.39052 9.94277C1.64057 10.1928 1.97971 10.3333 2.33333 10.3333H7Z" stroke="#004F9F" stroke-width="1.5" stroke-linecap="round" stroke-linejoin="round"/>
</svg>
